<svg width="1121" height="736" viewBox="0 0 1121 736" fill="none" xmlns="http://www.w3.org/2000/svg">
<path d="M161.736 253.431C153.718 245.437 142.832 242.337 133.172 237.201C101.165 220.183 68.6506 204.079 36.9358 186.55C23.8921 178.961 14.1079 166.896 9.43453 152.638C4.76121 138.381 5.5232 122.92 11.5761 109.182C14.3173 102.777 16.9198 102.352 22.6924 105.634C67.7933 131.277 112.985 156.763 158.267 182.092C158.78 182.296 159.317 182.436 159.866 182.507C171.648 190.361 184.126 197.137 197.146 202.75C211.62 212.708 227.502 220.269 242.715 228.964C272.387 245.921 302.204 262.681 332.25 278.921C349.771 288.391 365.817 298.074 376.891 314.911C386.225 329.045 390.757 345.766 389.828 362.633C388.9 379.501 382.558 395.633 371.727 408.677C360.589 421.307 345.551 429.933 328.953 433.212C312.355 436.492 295.128 434.241 279.955 426.81C251.213 412.637 223.361 396.693 195.116 381.532C195.338 363.186 195.56 344.839 195.783 326.49C199.85 328.303 204.016 329.927 207.968 331.958C238.003 347.39 267.955 362.979 298.025 378.343C302.6 380.823 307.85 381.801 313.021 381.139C318.192 380.478 323.019 378.209 326.809 374.659C330.598 371.11 333.156 366.461 334.115 361.381C335.073 356.302 334.384 351.051 332.144 346.384C328.952 340.15 323.678 335.206 317.219 332.396C291.184 318.945 265.305 305.191 239.142 291.989C225.381 284.125 211.176 277.048 196.598 270.792C185.857 263.413 174.121 257.568 161.736 253.431Z" fill="white"/>
<path d="M165.76 471.778C162.842 466.904 157.377 465.648 152.857 463.267C116.11 443.913 79.1198 425.013 42.4471 405.524C29.6937 399.556 18.925 390.102 11.4076 378.275C3.89025 366.448 -0.0631603 352.739 0.0124575 338.761C-0.192985 328.049 2.14515 317.438 6.83828 307.786C11.5314 298.134 18.4481 289.71 27.0302 283.195C35.6123 276.679 45.6194 272.254 56.2443 270.277C66.8692 268.3 77.8143 268.826 88.1963 271.813C102.999 275.838 115.502 284.388 128.987 291C138.493 295.66 147.741 300.831 157.169 305.65C159.314 306.746 162.404 308.349 162.853 304.187C163.218 300.808 165.1 296.597 160.355 294.311C160.267 294.574 160.191 294.842 160.091 295.1C159.555 296.486 161.018 296.032 161.441 296.483C163.325 318.814 163.355 341.245 162.99 363.684C160.458 362.565 157.83 361.618 155.407 360.3C131.67 347.39 107.954 334.44 84.2609 321.449C79.2541 318.329 73.3257 316.988 67.4489 317.647C62.8569 318.27 58.5411 320.184 55.0115 323.161C51.482 326.138 48.8865 330.055 47.5317 334.448C45.9345 340.119 46.2589 346.153 48.4555 351.624C50.652 357.095 54.5993 361.7 59.6913 364.733C71.6737 371.816 83.8939 378.514 96.1289 385.166C118.865 397.527 141.101 410.806 164.543 421.875C173.94 426.991 182.485 433.805 193.316 436.069C194.209 440.439 198.496 440.842 201.454 442.479C229.523 458.013 257.824 473.138 285.841 488.763C294.953 493.554 302.815 500.381 308.804 508.704C314.793 517.027 318.746 526.618 320.348 536.717C321.951 546.816 321.159 557.146 318.036 566.889C314.913 576.633 309.545 585.522 302.356 592.853C292.536 601.847 280.125 607.576 266.859 609.237C253.594 610.898 240.136 608.41 228.366 602.12C216.039 595.609 203.884 588.779 191.651 582.095L192.213 542.64C195.293 542.753 198.265 543.801 200.725 545.642C214.26 552.84 227.718 560.181 241.334 567.225C256.797 575.224 271.974 571.546 279.043 558.362C285.895 545.584 279.94 529.877 265.191 522.08C247.444 512.698 229.771 503.164 211.821 494.176C205.497 491.009 199.958 485.926 192.395 485.404C184.623 478.994 175.533 474.344 165.76 471.778Z" fill="white"/>
<path d="M631.414 453.33C627.035 454.573 625.106 451.526 623.76 446.463C618.991 428.528 613.657 410.739 608.908 392.799C608.806 391.788 608.497 390.808 607.999 389.921C607.5 389.033 606.824 388.256 606.011 387.637C605.198 387.018 604.266 386.571 603.272 386.324C602.278 386.076 601.243 386.032 600.231 386.196C568.347 386.413 536.463 386.42 504.577 386.217C503.633 386.057 502.666 386.086 501.734 386.305C500.802 386.523 499.924 386.925 499.153 387.488C498.382 388.051 497.733 388.762 497.245 389.578C496.757 390.395 496.441 391.301 496.315 392.242C491.437 410.149 485.876 427.879 481.325 445.862C479.706 452.257 476.65 453.593 470.709 453.155C452.116 451.782 452.106 451.936 457.21 434.032C474.992 369.654 496.899 306.466 522.798 244.852C532.04 223.351 532.183 224.355 555.903 223.04C568.894 222.32 574.639 227.302 579.396 238.251C608.265 305.25 632.203 374.231 651.022 444.655C652.633 450.605 650.782 452.044 645.333 452.096C641.161 452.136 636.995 452.807 631.414 453.33ZM552.133 364.462V364.547C565.278 364.547 578.426 364.402 591.568 364.612C597.612 364.709 599.783 362.776 597.714 356.736C585.77 321.861 574.144 286.869 558.91 253.209C557.51 250.116 557.134 245.565 552.291 245.764C547.637 245.955 547.236 250.426 545.843 253.549C531.222 287.42 518.347 322.005 507.269 357.172C505.343 363.038 506.971 364.599 512.696 364.52C525.839 364.337 538.987 364.462 552.133 364.462Z" fill="white"/>
<path d="M189.603 628.752C195.162 633.672 201.514 637.634 208.395 640.473C214.596 643.368 219.795 648.018 223.335 653.836C226.875 659.654 228.598 666.381 228.288 673.168C227.862 683.347 226.194 684.144 217.022 680.036C207.761 675.889 199.645 669.294 189.373 667.319C183.293 662.461 176.213 658.981 168.632 657.122C164.632 650.31 156.805 649.312 150.652 646.043C127.056 633.503 103.156 621.516 79.2287 609.601C44.389 592.253 34.7383 545.183 60.6204 519.056C68.479 511.149 78.5787 505.8 89.5778 503.718C100.577 501.636 111.955 502.92 122.2 507.399C136.781 514.306 151.798 520.319 166.032 527.963C166.116 540.878 166.199 553.804 166.28 566.74C163.224 566.369 160.282 565.356 157.652 563.77C143.558 556.439 129.399 549.231 115.272 541.962C109.688 538.64 103.004 537.645 96.6814 539.194C92.7694 539.853 89.1601 541.699 86.3514 544.477C83.5427 547.255 81.673 550.829 81.0004 554.705C80.2092 559.42 80.9183 564.263 83.0293 568.562C85.1403 572.86 88.5488 576.401 92.7817 578.693C108.223 587.618 124.023 595.962 139.916 604.082C148.862 609.557 158.378 614.058 168.299 617.509C174.878 622.157 182.039 625.937 189.603 628.752Z" fill="white"/>
<path d="M974.317 253.618C981.519 250.938 985.016 255.783 987.924 262.717C997.972 285.302 1010.77 306.583 1026.04 326.083C1030.33 331.815 1032.9 331.291 1037.08 325.806C1052.59 305.469 1065.71 283.453 1076.21 260.181C1078.95 254.116 1097.13 250.623 1101.68 255.323C1104.35 258.09 1101.46 260.562 1100.47 262.834C1088.36 289.671 1072.87 314.878 1054.37 337.852C1053.09 339.009 1052.06 340.415 1051.35 341.982C1050.64 343.549 1050.26 345.244 1050.24 346.962C1050.22 348.68 1050.56 350.383 1051.23 351.966C1051.91 353.549 1052.9 354.977 1054.16 356.163C1074.57 383.241 1092.09 412.346 1106.44 443.012C1109.74 450.097 1108.47 452.474 1100.87 452.193C1098.91 452.163 1096.95 452.339 1095.03 452.718C1093.59 453.143 1092.08 453.272 1090.59 453.095C1089.09 452.919 1087.65 452.441 1086.35 451.692C1085.05 450.943 1083.92 449.938 1083.03 448.739C1082.14 447.541 1081.5 446.174 1081.16 444.722C1069.46 417.71 1054.48 392.216 1036.55 368.806C1032.42 363.413 1030.34 363.518 1026.31 368.779C1008.58 391.654 993.863 416.67 982.504 443.225C982.093 444.92 981.342 446.516 980.296 447.917C979.25 449.318 977.93 450.497 976.414 451.382C974.899 452.267 973.22 452.841 971.476 453.069C969.732 453.298 967.96 453.176 966.265 452.712C951.873 450.726 952.362 452.707 958.564 439.174C973.028 408.553 990.685 379.515 1011.25 352.535C1012.03 351.81 1012.66 350.933 1013.08 349.958C1013.51 348.983 1013.74 347.932 1013.74 346.868C1013.74 345.805 1013.52 344.752 1013.09 343.776C1012.67 342.8 1012.05 341.921 1011.26 341.193C992.829 318.543 977.126 293.838 964.473 267.578C957.066 251.772 959.711 254.49 974.317 253.618Z" fill="white"/>
<path d="M197.149 202.749C184.128 197.136 171.65 190.36 159.868 182.506C159.812 164.772 159.656 147.044 159.775 129.317C159.893 127.844 159.49 126.375 158.634 125.165C157.778 123.954 156.524 123.077 155.086 122.684C140.205 115.829 133.813 102.253 128.234 88.1913C127.873 87.1367 127.77 86.0126 127.932 84.9108C128.093 83.8089 128.515 82.7607 129.164 81.8514C145.315 55.0356 161.4 28.1802 178.303 0C182.931 7.48369 186.934 13.929 190.91 20.3915C203.264 40.4727 215.626 60.5487 227.996 80.6196C229.502 83.0498 231.152 85.2758 229.949 88.2652C224.3 102.298 218.183 116.176 203.137 122.799C198.565 124.812 198.722 127.8 198.646 131.363C198.143 155.158 197.644 178.953 197.149 202.749Z" fill="white"/>
<path d="M675.021 353.028C675.022 323.346 675.223 293.662 674.874 263.984C674.791 256.936 676.362 254.145 684.118 254.397C703.691 255.035 723.318 254.233 742.88 255.032C777.508 256.448 799.092 279.705 800.214 313.112C801.691 357.102 772.72 380.288 733.033 381.152C723.521 381.359 713.995 381.418 704.488 381.145C699.043 380.989 697.224 382.919 697.31 388.381C697.597 406.684 697.108 425.003 697.561 443.3C697.728 450.069 695.379 451.916 688.923 451.71C673.168 451.208 675.107 453.395 675.05 437.912C674.944 409.618 675.02 381.322 675.021 353.028ZM697.414 318.263C697.414 331.012 697.569 343.763 697.332 356.506C697.246 361.145 698.84 363.057 703.564 362.909C715.292 362.54 727.099 363.125 738.747 362.012C766.237 359.385 778.995 342.924 778.088 312.486C777.398 289.355 762.225 274.963 736.631 273.733C725.469 273.197 714.263 273.647 703.083 273.387C698.705 273.285 697.249 274.855 697.325 279.19C697.552 292.211 697.406 305.239 697.414 318.263Z" fill="white"/>
<path d="M822.763 352.929C822.763 323.258 822.957 293.586 822.622 263.919C822.541 256.807 824.42 254.322 831.995 254.419C863.607 254.824 895.228 254.664 926.845 254.516C932.105 254.491 936.044 255.227 934.696 261.614C933.65 266.568 937.83 274.187 926.629 273.859C902.308 273.145 877.947 273.845 853.61 273.489C846.947 273.392 844.893 275.392 845.05 281.989C845.465 299.449 845.379 316.928 845.078 334.393C844.979 340.109 846.672 342.033 852.64 341.933C872.78 341.594 892.938 342.161 913.07 341.653C920.664 341.462 921.78 344.567 921.568 350.936C921.372 356.815 921.333 360.714 913.256 360.469C893.129 359.858 872.967 360.442 852.827 360.123C847.026 360.031 844.968 361.687 845.061 367.582C845.364 386.711 845.433 405.852 845.053 424.978C844.926 431.375 847.206 432.971 853.295 432.903C878.474 432.623 903.664 433.103 928.836 432.592C937.503 432.416 937.176 437.096 937.422 443.021C937.68 449.227 936.084 451.833 929.068 451.756C896.335 451.399 863.595 451.47 830.86 451.708C824.643 451.753 822.643 449.81 822.699 443.605C822.969 413.382 822.821 383.155 822.821 352.93L822.763 352.929Z" fill="white"/>
<path d="M783.022 495.564C674.423 495.564 565.823 495.564 457.225 495.563C454.985 495.563 452.746 495.527 450.508 495.545C448.312 495.563 446.611 495.025 446.571 492.405C446.527 489.547 448.116 488.487 450.801 488.547C452.479 488.585 454.159 488.535 455.839 488.535C674.716 488.536 893.593 488.539 1112.47 488.544C1114.43 488.482 1116.39 488.519 1118.34 488.655C1120.43 488.868 1120.86 490.426 1120.9 492.266C1120.95 494.283 1120.12 495.433 1118.05 495.497C1116.09 495.559 1114.13 495.523 1112.18 495.523C1002.46 495.524 892.74 495.524 783.022 495.524V495.564Z" fill="white"/>
<path d="M162.991 363.684C163.356 341.244 163.326 318.814 161.442 296.482C161.537 282.17 161.636 267.819 161.739 253.43C174.124 257.567 185.86 263.412 196.601 270.791C195.345 289.33 195.073 307.922 195.785 326.49C195.563 344.837 195.341 363.184 195.119 381.531C193.623 397.734 193.053 414.008 193.413 430.274C193.326 432.204 193.345 434.139 193.316 436.07C182.486 433.805 173.941 426.991 164.544 421.874C164.026 402.477 163.509 383.08 162.991 363.684Z" fill="white"/>
<path d="M166.28 566.741C166.198 553.81 166.115 540.885 166.032 527.964C167.112 512.26 165.985 496.567 165.493 480.866C165.398 477.841 165.662 474.806 165.76 471.776C175.534 474.342 184.624 478.994 192.395 485.406C191.923 504.484 191.119 523.559 192.213 542.639L191.651 582.095C190.092 592.916 189.551 603.858 190.036 614.779C189.888 619.44 189.743 624.099 189.603 628.757C182.041 625.939 174.879 622.158 168.3 617.51C167.856 600.578 168.141 583.618 166.28 566.741Z" fill="white"/>
<path d="M467.456 539.695C464.769 553.426 463.096 567.332 462.449 581.304C461.909 585.978 461.965 590.717 461.522 595.405C461.24 598.391 460.132 600.785 456.256 600.249C452.663 599.753 452.761 597.195 452.88 594.666C453.885 573.343 456.333 552.161 459.185 531.014C459.742 526.884 461.779 525.546 465.811 525.354C466.892 525.12 468.01 525.101 469.098 525.299C470.187 525.496 471.225 525.906 472.152 526.505C473.08 527.104 473.878 527.879 474.5 528.786C475.123 529.693 475.557 530.714 475.778 531.789C480.48 547.152 485.619 562.385 490.554 577.678C490.903 579.989 491.968 582.135 493.601 583.819C496.422 580.484 498.233 576.426 498.826 572.114C503.325 558.716 507.83 545.3 511.609 531.693C513.353 525.413 517.315 525.304 522.337 525.328C527.707 525.354 527.58 529.039 528.151 532.656C531.299 552.635 533.401 572.763 534.451 592.957C534.606 595.915 535.975 600.278 530.415 600.216C525.35 600.158 526.097 596.168 525.792 592.946C524.251 576.675 522.689 560.407 521.107 544.139C520.794 542.18 520.369 540.24 519.835 538.328C515.892 540.996 515.793 544.839 514.734 548.049C509.962 562.515 505.288 577.017 500.896 591.6C500.767 592.406 500.479 593.178 500.048 593.873C499.616 594.568 499.05 595.171 498.382 595.648C497.714 596.125 496.957 596.466 496.155 596.651C495.354 596.837 494.523 596.863 493.711 596.728C492.07 596.948 490.406 596.531 489.068 595.565C487.729 594.599 486.818 593.158 486.525 591.543C482.437 578.022 477.969 564.615 473.612 551.174C472.355 547.294 470.984 543.449 469.664 539.588L467.456 539.695Z" fill="white"/>
<path d="M643.642 562.387C643.644 573.207 643.53 584.028 643.697 594.845C643.767 599.388 641.329 601.92 637.776 599.526C633.741 596.806 631.123 598.681 627.823 599.837C624.758 601.268 621.389 601.94 618.005 601.796C614.621 601.652 611.323 600.695 608.394 599.008C605.465 597.322 602.992 594.956 601.189 592.114C599.387 589.272 598.307 586.038 598.043 582.691C595.765 573.994 596.935 564.763 601.312 556.895C603.966 552.407 608.033 548.906 612.889 546.93C617.745 544.955 623.121 544.613 628.191 545.959C634.25 547.154 635.569 545.073 635.142 539.756C634.832 535.896 635.043 531.994 635.045 528.111C635.046 525.44 635.366 523.202 639.004 523.106C642.863 523.005 643.767 524.982 643.709 528.266C643.606 534.09 643.649 539.916 643.641 545.742C643.634 551.291 643.634 556.839 643.642 562.387ZM635.276 572.915C635.276 569.053 634.989 565.166 635.345 561.338C635.854 555.865 633.909 553.311 628.128 552.859C620.466 552.26 613.401 552.88 608.997 559.925C606.553 563.815 605.16 568.263 604.953 572.841C604.746 577.419 605.731 581.973 607.814 586.064C611.15 593.434 617.053 595.274 625.947 593.774C634.195 592.382 636.302 587.728 635.327 580.354C635.149 577.878 635.132 575.393 635.276 572.915Z" fill="white"/>
<path d="M168.633 657.124C176.214 658.982 183.294 662.463 189.374 667.321C187.899 684.167 188.455 701.053 188.259 717.922C188.227 720.69 188.338 723.473 188.08 726.221C187.546 731.921 184.203 735.882 178.547 735.576C177.351 735.514 176.18 735.212 175.104 734.691C174.028 734.169 173.069 733.438 172.285 732.54C171.5 731.643 170.907 730.598 170.539 729.468C170.171 728.339 170.037 727.147 170.145 725.965C169.789 709.926 169.421 693.888 169.038 677.851C168.882 670.942 168.766 664.033 168.633 657.124Z" fill="white"/>
<path d="M768.202 574.648C768.213 581.285 768.125 587.923 768.243 594.557C768.326 599.302 766.187 601.924 761.771 599.5C760.456 598.822 758.992 598.477 757.51 598.497C756.027 598.517 754.573 598.901 753.277 599.614C736.412 605.355 723.882 597.099 722.365 579.386C720.124 553.202 736.582 539.577 761.12 547.106C766.047 548.617 768.704 550.839 768.293 556.405C767.846 562.456 768.191 568.565 768.202 574.648ZM759.905 572.662C759.721 569.076 759.746 565.481 759.981 561.898C760.741 555.479 757.951 553.147 751.671 552.638C735.323 551.314 725.812 564.998 731.073 582.75C731.407 584.633 732.117 586.431 733.163 588.037C734.209 589.643 735.569 591.025 737.163 592.102C738.757 593.179 740.552 593.929 742.443 594.307C744.334 594.685 746.282 594.684 748.172 594.304C758.252 592.746 759.868 590.68 759.906 579.292C759.913 577.082 759.907 574.872 759.905 572.662Z" fill="white"/>
<path d="M566.165 576.986C564.771 576.903 563.373 576.914 561.98 577.018C558.882 577.44 554.599 575.459 553.11 579.429C552.726 581.21 552.86 583.062 553.495 584.771C554.129 586.48 555.239 587.975 556.696 589.085C559.412 591.699 562.825 593.492 566.533 594.252C570.241 595.013 574.091 594.71 577.631 593.378C580.457 592.695 584.635 589.447 585.754 594.856C586.576 598.83 582.249 599.102 579.455 599.895C566.638 603.533 554.642 600.573 548.974 592.483C545.704 586.704 543.969 580.196 543.932 573.571C543.895 566.945 545.558 560.419 548.764 554.604C552.719 549.698 558.405 546.461 564.674 545.547C570.944 544.634 577.329 546.111 582.542 549.682C585.292 551.639 587.354 554.401 588.437 557.58C589.52 560.759 589.571 564.194 588.582 567.403C587.822 570.245 586.087 572.736 583.676 574.448C581.264 576.161 578.327 576.988 575.367 576.788C572.322 577.053 569.234 576.834 566.165 576.834L566.165 576.986ZM565.525 569.815V569.842C567.203 569.842 568.88 569.854 570.557 569.84C575.076 569.804 580.276 570.23 580.86 564.106C581.017 562.782 580.905 561.441 580.533 560.161C580.161 558.881 579.534 557.687 578.691 556.649C577.847 555.611 576.803 554.751 575.621 554.118C574.438 553.485 573.139 553.092 571.801 552.962C569.513 552.266 567.083 552.163 564.743 552.663C562.404 553.163 560.232 554.249 558.437 555.817C555.05 558.906 551.703 562.899 552.906 567.296C554.254 572.227 559.588 568.831 563.018 569.784C563.849 569.902 564.692 569.913 565.525 569.815Z" fill="white"/>
<path d="M676.676 572.339C676.504 551.267 691.546 540.187 711.156 547.013C713.659 547.885 717.082 548.426 715.856 552.463C714.661 556.397 711.993 554.201 709.707 553.756C701.589 552.176 693.406 550.676 687.938 559.241C685.641 563.839 684.525 568.927 684.689 574.055C684.853 579.183 686.292 584.191 688.878 588.635C691.218 591.437 694.419 593.402 697.992 594.231C701.565 595.06 705.314 594.706 708.665 593.225C711.123 592.514 714.569 590.5 715.743 594.534C716.832 598.277 713.212 598.838 710.622 599.677C690.021 606.346 676.868 595.743 676.676 572.339Z" fill="white"/>
<path d="M790.05 561.973C790.05 572.766 790.089 583.558 790.023 594.35C790.006 597.075 790.276 600.226 786.047 600.242C781.897 600.258 781.888 597.133 781.883 594.406C781.842 572.822 781.874 551.237 781.978 529.653C781.993 526.703 781.707 522.991 786.415 523.306C790.455 523.576 790.038 526.896 790.054 529.595C790.118 540.388 790.08 551.18 790.08 561.973L790.05 561.973Z" fill="white"/>
<path d="M665.656 573.25C665.656 580.718 665.612 588.188 665.678 595.656C665.704 598.591 664.925 600.422 661.45 600.256C658.292 600.104 657.104 598.73 657.125 595.598C657.223 580.938 657.198 566.276 657.148 551.615C657.137 548.277 658.315 546.419 661.987 546.464C665.853 546.511 665.578 549.208 665.596 551.673C665.648 558.865 665.615 566.057 665.615 573.249L665.656 573.25Z" fill="white"/>
<path d="M661.236 528.133C664.137 527.947 666.153 529.083 666.311 532.105C666.397 532.72 666.344 533.346 666.156 533.937C665.967 534.529 665.649 535.072 665.223 535.527C664.797 535.982 664.274 536.337 663.693 536.568C663.111 536.798 662.486 536.897 661.861 536.857C658.848 536.988 656.199 536.03 656.299 532.447C656.38 529.567 658.345 528.167 661.236 528.133Z" fill="white"/>
</svg>
