<svg width="1748" height="736" viewBox="0 0 1748 736" fill="none" xmlns="http://www.w3.org/2000/svg">
<path d="M234.036 307.118C274.61 303.103 315.183 301.107 355.757 300.745V311.003C349.76 311.011 343.77 311.428 337.831 312.252C333.179 312.875 328.636 314.13 324.332 315.981C320.69 317.609 317.445 319.988 314.816 322.958C312.114 326.156 310.049 329.829 308.729 333.782C307.025 338.779 305.911 343.953 305.409 349.202C304.699 356.141 304.367 363.113 304.414 370.088V442.984C266.57 444.671 228.725 447.921 190.882 453.047C177.602 443.496 164.102 434.11 150.381 424.889C144.553 420.944 138.393 416.854 131.902 412.619C125.41 408.318 118.807 404.063 112.094 399.856C105.454 395.564 98.8153 391.373 92.176 387.284C85.5368 383.193 79.1187 379.297 72.9218 375.597C71.9891 379.754 71.3239 383.965 70.9301 388.204C70.561 392.734 70.3765 397.727 70.3767 403.183C70.1681 412.852 71.0589 422.514 73.0324 431.987C74.3221 438.34 77.5681 444.145 82.3275 448.612C87.2799 452.598 93.4219 454.872 99.8111 455.085C109.001 455.521 118.21 454.898 127.254 453.229V463.487C84.1841 471.793 41.6833 482.746 0 496.283V486.025C9.56074 482.774 18.7866 478.634 27.553 473.661C34.4679 469.827 40.442 464.539 45.0509 458.172C49.6599 451.804 52.7907 444.514 54.221 436.819C56.2185 426.878 57.1459 416.756 56.9876 406.622C57.0675 399.774 56.5863 392.931 55.5488 386.16C54.9195 381.248 53.4609 376.474 51.2333 372.037C49.5811 368.558 46.9746 365.605 43.7087 363.512C40.4585 361.434 36.7279 360.202 32.8646 359.93C28.0125 359.579 23.1346 359.89 18.3688 360.855C12.1452 362.056 6.00903 363.662 0 365.661V355.404C62.9025 335.045 127.579 320.467 193.204 311.856C225.7 333.565 258.196 356.585 290.692 380.918L290.912 370.758C291.17 361.007 290.091 351.266 287.704 341.8C286.164 335.297 282.698 329.392 277.746 324.836C272.742 320.643 266.571 318.04 260.041 317.367C251.402 316.375 242.675 316.378 234.036 317.376C234.036 313.957 234.036 310.537 234.036 307.118ZM676.217 367.441C680.531 376.44 682.689 386.297 682.524 396.25C682.833 405.658 680.66 414.983 676.217 423.313C672.106 430.648 666.212 436.862 659.065 441.396C651.16 446.385 642.436 449.981 633.283 452.026C622.708 454.518 611.934 456.104 601.082 456.767C589.004 457.629 576.885 457.808 564.786 457.303C552.171 456.823 539.519 456.036 526.831 454.945C514.144 453.857 501.456 452.481 488.766 450.815C476.595 449.245 464.517 447.043 452.582 444.219C441.611 441.714 430.847 438.398 420.381 434.299C411.109 430.711 402.422 425.8 394.598 419.723C387.501 414.102 381.661 407.092 377.447 399.136C373.364 390.373 371.251 380.843 371.251 371.2C371.251 361.557 373.364 352.027 377.447 343.264C381.622 335.384 387.472 328.485 394.598 323.039C402.388 317.216 411.099 312.702 420.381 309.679C430.853 306.23 441.636 303.778 452.582 302.357C464.569 300.706 476.662 299.921 488.766 300.006C501.456 300.066 514.144 300.642 526.831 301.734C539.52 302.821 552.172 304.407 564.786 306.494C577.062 308.492 589.188 311.302 601.082 314.905C612.158 318.158 622.931 322.34 633.283 327.406C642.677 331.92 651.361 337.749 659.065 344.712C666.2 351.14 672.022 358.855 676.217 367.441ZM553.61 380.788C553.642 372.217 553.199 363.649 552.282 355.125C551.652 348.046 550.204 341.061 547.967 334.306C546.288 329.005 543.413 324.149 539.558 320.101C536.065 316.497 531.323 314.324 526.277 314.017C523.003 313.646 519.69 314.244 516.761 315.735C513.984 317.306 511.631 319.515 509.902 322.173C507.814 325.29 506.21 328.698 505.143 332.283C503.819 336.567 502.821 340.942 502.155 345.372C501.416 350.046 500.9 355.028 500.607 360.316C500.311 365.533 500.163 370.833 500.163 376.216C500.165 385.381 500.497 393.917 501.16 401.825C501.722 408.848 503.057 415.791 505.143 422.529C506.71 427.734 509.431 432.53 513.111 436.57C516.571 440.141 521.277 442.284 526.277 442.566C528.633 442.884 531.029 442.717 533.316 442.073C535.602 441.43 537.727 440.325 539.558 438.829C543.423 435.404 546.32 431.048 547.967 426.188C550.235 419.725 551.684 413.009 552.282 406.195C553.203 397.757 553.647 389.275 553.61 380.788ZM705.319 339.249C711.511 340.11 717.645 341.336 723.689 342.92C728.719 344.219 733.582 346.081 738.183 348.471C742.255 350.604 745.923 353.413 749.029 356.774C752.246 360.198 754.796 364.177 756.553 368.512C758.702 373.614 760.153 378.975 760.868 384.455C761.888 391.43 762.369 398.472 762.307 405.52C762.512 415.271 761.584 425.014 759.541 434.557C758.27 441.137 755.078 447.208 750.356 452.024C745.51 456.385 739.391 459.125 732.873 459.852C723.715 460.93 714.455 460.85 705.319 459.613V469.871C781.635 480.897 857.95 493.807 934.266 506.043C934.266 502.624 934.266 499.205 934.266 495.786C924.78 494.127 915.53 491.354 906.713 487.524C899.89 484.527 893.895 479.961 889.229 474.21C884.643 468.193 881.503 461.227 880.045 453.839C878.114 443.991 877.224 433.972 877.388 423.943C877.122 414.305 878.164 404.676 880.487 395.31C881.83 389.082 885.321 383.505 890.364 379.529C895.408 375.553 901.693 373.424 908.15 373.503C916.899 373.251 925.652 373.894 934.266 375.421C934.266 372.002 934.266 368.583 934.266 365.164C857.95 352.927 781.635 340.018 705.319 328.991V339.249ZM1227.94 499.674C1225.62 504.017 1222.55 507.929 1218.87 511.237C1215.07 514.628 1210.78 517.444 1206.15 519.593C1201.32 521.811 1196.28 523.525 1191.1 524.706C1185.79 525.946 1180.39 526.712 1174.94 526.993C1169.55 527.29 1164.15 527.145 1158.78 526.56C1150.29 525.626 1141.98 523.493 1134.11 520.225C1126.4 516.993 1119.29 512.504 1113.08 506.948C1106.98 501.3 1102.02 494.553 1098.48 487.069C1094.76 478.89 1092.91 470.004 1093.06 461.04C1092.71 451.451 1094.41 441.898 1098.03 432.994C1100.95 426.252 1105.61 420.38 1111.54 415.961C1117.27 411.892 1123.91 409.233 1130.9 408.206C1138.56 407.055 1146.34 406.934 1154.03 407.847C1159.14 408.448 1164.21 409.405 1169.19 410.711C1174.57 412.03 1179.86 413.709 1185.01 415.739C1190.33 417.804 1195.47 420.277 1200.39 423.135C1205.22 425.925 1209.78 429.156 1214 432.786C1218.07 436.28 1221.64 440.296 1224.63 444.726C1227.65 449.046 1229.89 453.846 1231.26 458.915C1236.8 459.364 1242.33 459.792 1247.86 460.198C1247.82 455.206 1247.45 450.221 1246.76 445.276C1246.02 439.62 1244.99 433.905 1243.66 428.13C1242.44 422.472 1240.88 416.888 1239.01 411.406C1237.42 406.528 1235.38 401.802 1232.92 397.285C1224.81 396.633 1216.7 395.937 1208.58 395.196C1207.73 396.548 1206.6 397.708 1205.26 398.601C1203.85 399.572 1202.32 400.381 1200.72 401.014C1199.11 401.588 1197.44 402.013 1195.75 402.285C1194.29 402.557 1192.8 402.632 1191.32 402.508C1184.95 401.83 1178.63 400.748 1172.4 399.267C1165.46 397.661 1157.82 395.875 1149.49 393.91C1141.15 391.941 1132.15 389.926 1122.49 387.866C1112.83 385.804 1102.57 384.056 1091.73 382.623C1073.49 379.995 1055.02 379.249 1036.62 380.398C1022.17 381.117 1007.93 384.144 994.463 389.361C983.879 393.459 974.596 400.267 967.572 409.083C961.218 417.667 957.912 428.077 958.167 438.702C958.045 448.186 959.851 457.599 963.478 466.384C967.163 474.843 972.417 482.55 978.969 489.108C986.236 496.243 994.466 502.356 1003.43 507.275C1013.86 512.938 1024.78 517.67 1036.07 521.415C1049.12 525.761 1062.42 529.318 1075.91 532.069C1090.36 535.06 1105.74 537.572 1122.05 539.604C1140.27 542.094 1158.71 542.622 1177.04 541.179C1190.73 540.283 1204.16 537.108 1216.77 531.788C1226.41 527.799 1234.75 521.275 1240.89 512.928C1246.33 504.954 1249.15 495.528 1248.97 485.923C1243.47 485.523 1237.98 485.101 1232.48 484.658C1231.98 489.909 1230.44 495.011 1227.94 499.674ZM1575.85 490.55C1569.54 495.947 1562.76 500.787 1555.6 505.015C1547.27 509.889 1538.62 514.198 1529.7 517.912C1520.31 521.884 1510.7 525.359 1500.93 528.323C1491.34 531.246 1481.58 533.636 1471.72 535.482C1462.84 537.184 1453.86 538.266 1444.83 538.72C1444.83 520.75 1444.83 502.781 1444.83 484.812C1448.42 485.696 1451.97 486.759 1455.45 487.997C1459.73 489.37 1464.27 490.923 1469.06 492.658C1473.86 494.391 1478.73 496.2 1483.67 498.086C1488.61 499.897 1493.22 501.674 1497.5 503.414C1501.78 505.083 1505.54 506.599 1508.79 507.961C1512.11 509.321 1514.51 510.351 1515.98 511.077C1516.5 508.771 1516.94 506.144 1517.31 503.195C1517.68 500.175 1517.97 497.052 1518.2 493.829C1518.49 490.597 1518.68 487.414 1518.75 484.279C1518.9 481.134 1518.97 478.289 1518.97 475.744C1518.97 472.978 1518.93 469.926 1518.86 466.589C1518.79 463.25 1518.64 459.882 1518.42 456.486C1518.19 453.017 1517.86 449.704 1517.42 446.548C1517.11 443.661 1516.63 440.795 1515.98 437.964C1513.82 439.577 1511.56 441.073 1509.23 442.444C1506.06 444.419 1502.3 446.651 1497.95 449.141C1493.67 451.546 1489.02 454.067 1484 456.703C1479.06 459.329 1474.15 461.815 1469.29 464.162C1464.49 466.505 1459.92 468.628 1455.56 470.531C1451.29 472.36 1447.71 473.737 1444.83 474.663C1444.83 456.258 1444.83 437.852 1444.83 419.446C1453.17 419.067 1461.72 419.106 1470.5 419.561C1479.28 420.013 1487.99 420.853 1496.62 422.083C1505.03 423.27 1513.38 424.88 1521.62 426.907C1529.3 428.745 1536.84 431.088 1544.2 433.919C1550.67 436.382 1556.87 439.514 1562.68 443.26C1567.73 446.414 1572.19 450.416 1575.85 455.085C1579.72 454.496 1583.59 453.887 1587.46 453.257C1587.46 448.965 1587.35 444.363 1587.13 439.452C1586.91 434.469 1586.54 429.473 1586.03 424.462C1585.58 419.37 1584.99 414.336 1584.26 409.36C1583.59 404.301 1582.78 399.518 1581.82 395.014C1478.8 411.234 1375.78 413.055 1272.76 406.764V417.022C1278.92 417.364 1285.05 418.037 1291.13 419.039C1296.11 419.834 1300.97 421.201 1305.63 423.111C1309.66 424.781 1313.34 427.189 1316.47 430.208C1319.7 433.281 1322.26 436.974 1323.99 441.06C1326.16 445.972 1327.62 451.162 1328.31 456.476C1329.34 463.391 1329.82 470.373 1329.75 477.362C1329.94 487.226 1329.01 497.08 1326.98 506.741C1325.64 513.621 1322.47 520.027 1317.8 525.305C1313.06 530.171 1306.98 533.559 1300.31 535.052C1291.28 537.065 1282.01 537.851 1272.76 537.386V547.644C1379.84 554.182 1486.92 551.957 1593.99 533.91C1594.95 529.093 1595.76 524.081 1596.43 518.874C1597.16 513.582 1597.75 508.352 1598.2 503.184C1598.71 497.93 1599.08 492.81 1599.31 487.824C1599.52 482.766 1599.63 478.091 1599.64 473.799C1595.76 474.472 1591.89 475.124 1588.02 475.755C1584.98 481.424 1580.85 486.451 1575.85 490.55ZM1743.41 331.878C1740.13 328.501 1735.81 326.286 1731.13 325.58C1725.28 324.512 1719.3 324.408 1713.42 325.274C1706.29 326.125 1699.22 327.494 1692.29 329.368C1685.08 331.261 1678.02 333.639 1671.15 336.486C1664.83 338.991 1658.84 342.263 1653.34 346.227C1648.47 349.675 1644.33 354.03 1641.16 359.045C1638.09 364.071 1636.52 369.849 1636.63 375.717C1636.59 379.572 1637.66 383.359 1639.73 386.632C1642 389.969 1644.67 393.019 1647.69 395.716C1650.98 398.677 1654.41 401.474 1657.98 404.096C1661.67 406.728 1665.14 409.631 1668.39 412.779C1671.51 415.73 1674.15 419.129 1676.24 422.862C1678.43 426.672 1679.54 430.993 1679.45 435.372C1679.29 436.583 1679.57 437.809 1680.24 438.837C1680.91 439.864 1681.92 440.627 1683.1 440.993C1686.15 441.664 1689.32 441.517 1692.29 440.566C1694.03 440.111 1695.74 439.51 1697.38 438.766C1698.81 438.061 1700.15 437.183 1701.36 436.152C1702.47 435.187 1703.41 434.043 1704.13 432.769C1704.8 431.467 1705.14 430.025 1705.12 428.564C1705.16 423.677 1706.21 418.85 1708.22 414.382C1710.45 409.401 1713.12 404.622 1716.19 400.099C1719.36 395.323 1722.79 390.596 1726.48 385.921C1730.24 381.222 1733.71 376.592 1736.88 372.03C1739.85 367.81 1742.48 363.364 1744.74 358.733C1746.76 354.822 1747.85 350.514 1747.95 346.127C1748.32 340.982 1746.7 335.889 1743.41 331.878ZM1728.03 456.165C1722.78 454.716 1717.32 454.112 1711.87 454.376C1705.25 454.606 1698.67 455.611 1692.29 457.371C1685.47 459.151 1678.87 461.639 1672.59 464.793C1666.86 467.631 1661.48 471.102 1656.55 475.138C1652.33 478.534 1648.7 482.587 1645.81 487.137C1643.31 490.861 1641.93 495.208 1641.83 499.674C1641.76 503.64 1643.18 507.492 1645.81 510.49C1648.73 513.732 1652.42 516.208 1656.55 517.696C1661.71 519.444 1667.13 520.301 1672.59 520.229C1679.25 520.266 1685.88 519.384 1692.29 517.609C1699.11 515.809 1705.69 513.19 1711.87 509.812C1717.69 506.767 1723.11 503.044 1728.03 498.724C1732.28 494.96 1735.93 490.594 1738.87 485.767C1741.35 481.882 1742.73 477.413 1742.86 472.826C1742.97 468.974 1741.54 465.233 1738.87 462.414C1735.92 459.372 1732.16 457.207 1728.03 456.165Z" fill="white"/>
</svg>
